<svg width="102" height="99" viewBox="0 0 102 99" fill="none" xmlns="http://www.w3.org/2000/svg">
<g clip-path="url(#clip0_2823_37467)">
<path d="M102 49.5C102 65.1856 94.4831 79.1672 82.7543 88.2359C74.0425 94.9743 63.0053 99 51 99C38.9947 99 27.9575 94.9743 19.2457 88.2359C7.51686 79.1672 0 65.1856 0 49.5C0 22.1622 22.8338 0 51 0C79.1662 0 102 22.1622 102 49.5Z" fill="#F2F9FF"/>
<path d="M50.9999 59.2467C62.8399 59.2467 72.438 49.9309 72.438 38.4392C72.438 26.9475 62.8399 17.6317 50.9999 17.6317C39.16 17.6317 29.5619 26.9475 29.5619 38.4392C29.5619 49.9309 39.16 59.2467 50.9999 59.2467Z" fill="#3475B2"/>
<path d="M82.7543 88.2359C74.0425 94.9743 63.0053 99 51 99C38.9947 99 27.9575 94.9743 19.2457 88.2359C23.3697 75.0089 36.0261 65.3794 51 65.3794C65.9739 65.3794 78.6303 75.0089 82.7543 88.2359Z" fill="#3475B2"/>
</g>
<defs>
<clipPath id="clip0_2823_37467">
<rect width="102" height="99" fill="white"/>
</clipPath>
</defs>
</svg>
